<?xml version="1.0" encoding="iso-8859-1"?>
<!-- Uploaded to: SVG Repo, www.svgrepo.com, Generator: SVG Repo Mixer Tools -->
<svg fill="#000000" height="800px" width="800px" version="1.1" id="Layer_1" xmlns="http://www.w3.org/2000/svg" xmlns:xlink="http://www.w3.org/1999/xlink" 
	 viewBox="0 0 512 512" xml:space="preserve">
<g>
	<g>
		<path d="M510.728,345.181l-16.422-44.703c-2.362-6.435-7.72-11.281-14.338-12.963c-6.607-1.673-13.595-0.006-18.65,4.405
			c-0.109,0.088-0.496,0.396-1.102,0.833V119.916c0-6.277-3.774-11.937-9.566-14.35L261.98,26.949
			c-3.828-1.595-8.132-1.595-11.959,0L61.351,105.566c-5.794,2.414-9.566,8.074-9.566,14.35v172.843
			c-0.607-0.438-0.975-0.732-1.036-0.781c-5.122-4.451-12.101-6.115-18.702-4.443c-6.629,1.685-11.994,6.523-14.351,12.942
			L1.272,345.181c-3.941,10.729,1.581,22.664,12.311,26.605c10.729,3.944,22.664-1.582,26.604-12.31l8.128-22.125
			c1.656,0.596,3.324,1.136,4.998,1.618c10.76,3.1,26.279,5.007,43.412-1.009l8.384,24.684c2.857,8.413,10.744,14.065,19.627,14.065
			c2.269,0,4.514-0.371,6.668-1.104c10.821-3.676,16.637-15.472,12.961-26.293l-14.769-43.489l1.802-11.269l5.137,2.867
			c9.981,5.566,22.631,1.974,28.199-8.002c5.569-9.981,1.981-22.632-7.999-28.202l-31.021-17.311
			c-5.901-3.291-13.055-3.499-19.147-0.548c-6.084,2.951-10.353,8.699-11.422,15.376l-5.94,37.124
			c-2.094,1.249-4.201,2.23-6.326,2.965V191.91h119.323v263.244h-78.718c-8.586,0-15.546,6.961-15.546,15.547
			s6.961,15.547,15.546,15.547h265.035c8.586,0,15.547-6.961,15.547-15.547s-6.961-15.547-15.547-15.547H309.8V191.91h119.323
			v106.912c-2.127-0.735-4.234-1.716-6.326-2.965l-5.94-37.123c-1.068-6.678-5.337-12.426-11.425-15.379
			c-6.082-2.948-13.238-2.742-19.144,0.551l-31.02,17.309c-9.98,5.571-13.568,18.222-7.999,28.203
			c5.57,9.977,18.219,13.567,28.202,7.999l5.133-2.865l1.802,11.269l-14.769,43.488c-3.676,10.822,2.138,22.618,12.961,26.294
			c2.157,0.733,4.401,1.104,6.668,1.104c8.881,0,16.77-5.653,19.627-14.065l8.384-24.684c17.135,6.019,32.655,4.108,43.412,1.01
			c1.674-0.482,3.343-1.021,4.998-1.618l8.127,22.124c1.909,5.198,5.726,9.34,10.751,11.666c5.024,2.325,10.654,2.555,15.855,0.645
			C509.147,367.845,514.668,355.909,510.728,345.181z M278.707,455.154h-45.412v-25.849h45.412V455.154z M278.707,398.212h-45.412
			v-30.786h45.412V398.212z M278.707,336.333h-45.412v-30.786h45.412V336.333z M278.707,274.453h-45.412v-30.786h45.412V274.453z
			 M278.707,212.574h-45.412v-20.664h45.412V212.574z M429.123,160.817H82.878v-16.338h346.245V160.817z"/>
	</g>
</g>
</svg>