<?xml version="1.0" encoding="iso-8859-1"?>
<!-- Uploaded to: SVG Repo, www.svgrepo.com, Generator: SVG Repo Mixer Tools -->
<svg fill="#000000" height="28px" width="28px" version="1.1" id="Capa_1" xmlns="http://www.w3.org/2000/svg" xmlns:xlink="http://www.w3.org/1999/xlink" 
	 viewBox="0 0 512.001 512.001" xml:space="preserve">
<g>
	<g>
		<path d="M465.455,0H46.545C33.693,0,23.273,10.42,23.273,23.273v372.364c0,10.017,6.411,18.911,15.914,22.078l279.273,93.091
			c2.403,0.802,4.887,1.195,7.357,1.195c4.824,0,9.598-1.5,13.608-4.392c6.07-4.374,9.666-11.401,9.666-18.88v-69.818h69.818
			c12.853,0,23.273-10.42,23.273-23.273V232.727h23.273c12.853,0,23.273-10.42,23.273-23.273V23.273
			C488.727,10.42,478.307,0,465.455,0z M302.545,456.439L69.818,378.863V55.561l232.727,77.577V456.439z M442.182,186.182h-23.273
			c-12.853,0-23.273,10.42-23.273,23.273v162.909h-46.545v-256c0-10.017-6.411-18.91-15.914-22.078L189.96,46.545h252.222V186.182z"
			/>
	</g>
</g>
<g>
	<g>
		<path d="M255.528,183.94c-5.221-4.423-12.122-6.322-18.87-5.199l-93.091,15.515c-11.221,1.87-19.447,11.579-19.447,22.956v71.171
			c-9.033,3.198-15.515,11.792-15.515,21.92c0,12.853,10.42,23.273,23.273,23.273h15.515c12.853,0,23.273-10.42,23.273-23.273
			v-73.376l46.545-7.758v43.698c-9.033,3.198-15.515,11.792-15.515,21.92c0,12.853,10.42,23.273,23.273,23.273h15.515
			c12.853,0,23.273-10.42,23.273-23.273v-93.091C263.758,194.856,260.748,188.362,255.528,183.94z"/>
	</g>
</g>
</svg>